:SAMPLES-PER-SECOND 30
:FULLY-SPECIFIED
:DEGREES
386
root  -12.6909 35.1181 -2.06642 -92.498 -87.4807 118.019
RightUpLeg  -60.5033 -21.9411 14.4502
RightLeg  60.0195 -6.07834 -11.7496
RightFoot  -25.5039 -0.226373 -0.418256
RightToes  2.91037e-010 0 -3.6325e-017
Spine  71.982 -4.91858 4.20063
Spine1  12.9634 1.92737 -12.2201
HEad  -53.1178 -3.8755 4.85078
LeftShoulder1  -2.03003 -21.3356 18.8955
LeftArm  -74.8646 -62.5963 41.0332
LeftForeArm  56.9686 -0.791006 -1.01224
LeftHand  -0.244104 0.0205437 5.32207
RightShoulder  1.19327 15.0198 -2.24175
RightArm  -68.8381 61.6509 -28.3273
RightForeArm  19.7262 3.72182 1.12614
RightHand  -5.76074 15.4015 -31.6757
LeftUpLeg  -76.4247 18.3166 -25.7466
LeftLeg  40.5293 3.38342 3.48922
LeftFoot  -4.58255 0.238438 -3.85068
LeftToes  -1.10052e-010 1.3781e-010 -2.1811e-011
387
root  -14.1683 35.1139 -1.82166 -90.5308 -88.277 116.45
RightUpLeg  -58.297 -22.1451 13.6391
RightLeg  60.8683 -6.03595 -12.0911
RightFoot  -26.6077 -0.0190396 1.18169
RightToes  2.91037e-010 0 -3.6325e-017
Spine  71.9476 -5.04559 4.41639
Spine1  13.235 2.19523 -12.2325
HEad  -52.2045 -4.1637 4.28751
LeftShoulder1  -1.78356 -21.1855 17.8287
LeftArm  -75.8843 -63.3536 42.0147
LeftForeArm  57.4902 -1.11096 -1.28742
LeftHand  -0.244104 0.0205437 5.32207
RightShoulder  1.19255 14.9011 -2.19992
RightArm  -68.6399 61.8031 -27.809
RightForeArm  19.9016 3.68437 1.08705
RightHand  -5.86992 15.6593 -31.8663
LeftUpLeg  -74.1834 18.1972 -28.8108
LeftLeg  33.1173 2.26369 1.894
LeftFoot  -0.685672 -0.184307 1.88874
LeftToes  -1.10052e-010 1.3781e-010 -2.1811e-011
388
root  -15.6039 35.0294 -1.53731 -89.6355 -88.845 115.212
RightUpLeg  -56.1688 -22.4269 11.9393
RightLeg  63.2647 -5.30922 -11.8884
RightFoot  -26.4443 0.408444 4.46766
RightToes  2.91037e-010 0 -3.6325e-017
Spine  72.0455 -5.01402 4.26289
Spine1  13.1574 2.233 -12.1763
HEad  -51.2477 -4.06882 4.32664
LeftShoulder1  -1.62616 -21.1763 17.107
LeftArm  -75.5239 -64.1149 41.8915
LeftForeArm  57.456 -1.18087 -1.74865
LeftHand  -0.244104 0.0205437 5.32207
RightShoulder  1.25769 15.3411 -1.98016
RightArm  -67.397 61.661 -26.7989
RightForeArm  19.9547 3.57702 1.18687
RightHand  -5.87018 15.6815 -31.8357
LeftUpLeg  -72.1035 16.3457 -26.7405
LeftLeg  33.7878 4.27167 3.4862
LeftFoot  0.817541 -1.01646 9.65855
LeftToes  -1.10052e-010 1.3781e-010 -2.1811e-011
389
root  -16.9618 34.9603 -1.25502 -96.5693 -88.8902 121.325
RightUpLeg  -55.1212 -22.7994 9.32882
RightLeg  67.5132 -3.97087 -11.1737
RightFoot  -22.7341 0.780532 9.73323
RightToes  2.91037e-010 0 -3.6325e-017
Spine  72.1502 -4.77563 3.80368
Spine1  12.7018 2.06453 -12.4019
HEad  -50.8589 -3.80887 4.63837
LeftShoulder1  -1.60836 -21.2234 17.0104
LeftArm  -75.6399 -64.7994 41.2976
LeftForeArm  57.1611 -1.25517 -1.78784
LeftHand  -0.244104 0.0205437 5.32207
RightShoulder  1.33204 15.9844 -1.79742
RightArm  -66.4384 61.0644 -25.4131
RightForeArm  20.2571 3.43984 0.966481
RightHand  -5.8665 15.7442 -31.7283
LeftUpLeg  -70.7319 14.219 -22.8906
LeftLeg  39.2325 7.1971 6.63909
LeftFoot  -1.27715 -1.10692 12.512
LeftToes  -1.10052e-010 1.3781e-010 -2.1811e-011
390
root  -18.2819 34.973 -0.942186 -117.288 -88.601 141.398
RightUpLeg  -56.4069 -22.9926 6.89806
RightLeg  73.0407 -2.72462 -11.0982
RightFoot  -12.9172 0.136454 11.3297
RightToes  2.91037e-010 0 -3.6325e-017
Spine  72.2876 -4.43621 3.75462
Spine1  12.1119 2.20427 -12.6412
HEad  -50.7804 -4.20701 4.08943
LeftShoulder1  -1.49322 -22.0873 16.2554
LeftArm  -76.7587 -65.4681 41.1568
LeftForeArm  57.4878 -1.45373 -1.54572
LeftHand  -0.244104 0.0205437 5.32207
RightShoulder  1.34877 16.2776 -1.81799
RightArm  -66.5618 60.3261 -23.9025
RightForeArm  20.8974 3.07872 0.269267
RightHand  -5.98979 16.11 -31.8334
LeftUpLeg  -69.7374 13.6659 -20.8662
LeftLeg  44.1509 8.17877 8.79238
LeftFoot  -5.00042 -0.582827 10.9731
LeftToes  -1.10052e-010 1.3781e-010 -2.1811e-011
391
root  -19.5527 35.0429 -0.594655 -128.565 -88.1621 152.576
RightUpLeg  -59.9171 -22.521 5.02043
RightLeg  78.1876 -1.78453 -11.7126
RightFoot  0.417468 -0.478997 5.12012
RightToes  2.91037e-010 0 -3.6325e-017
Spine  72.3511 -4.30905 3.99667
Spine1  11.6341 2.77314 -12.897
HEad  -50.698 -5.11799 2.79295
LeftShoulder1  -1.30741 -23.5452 15.0999
LeftArm  -77.415 -65.8816 41.2466
LeftForeArm  57.9159 -1.45453 -1.46378
LeftHand  -0.244104 0.0205437 5.32207
RightShoulder  1.30314 16.1649 -2.03761
RightArm  -67.7078 59.9171 -23.3145
RightForeArm  21.0174 2.19522 -0.526753
RightHand  -6.23577 16.6433 -32.3037
LeftUpLeg  -68.6057 13.984 -20.6146
LeftLeg  46.7183 8.11014 9.53301
LeftFoot  -8.26258 -0.20849 9.7582
LeftToes  -1.10052e-010 1.3781e-010 -2.1811e-011
392
root  -20.7617 35.0743 -0.260701 -133.572 -87.9308 157.796
RightUpLeg  -63.8009 -21.0801 3.38715
RightLeg  81.6229 -1.07768 -11.954
RightFoot  8.75736 0.477395 -2.63587
RightToes  2.91037e-010 0 -3.6325e-017
Spine  72.2657 -4.47387 4.22113
Spine1  11.2428 3.25684 -13.3087
HEad  -50.7621 -5.56885 2.17395
LeftShoulder1  -1.37584 -24.3358 15.2223
LeftArm  -77.2932 -65.8415 41.0211
LeftForeArm  57.5545 -0.992061 -1.36986
LeftHand  -0.244104 0.0205437 5.32207
RightShoulder  1.26433 16.1021 -2.23842
RightArm  -69.2117 59.8395 -24.6196
RightForeArm  20.1168 0.942668 -0.913525
RightHand  -6.39124 16.8801 -32.7293
LeftUpLeg  -67.605 14.2149 -20.6621
LeftLeg  48.7714 8.00662 10.108
LeftFoot  -10.9012 0.0278409 9.84787
LeftToes  -1.10052e-010 1.3781e-010 -2.1811e-011
393
root  -21.9328 35.1552 0.0270779 -146.665 -87.9127 171.091
RightUpLeg  -67.0418 -18.9524 2.19897
RightLeg  82.5515 -0.921604 -12.3567
RightFoot  8.71328 1.10012 -5.90601
RightToes  2.91037e-010 0 -3.6325e-017
Spine  72.403 -4.84365 4.72804
Spine1  10.9671 3.31711 -13.5827
HEad  -50.9495 -5.31124 2.72185
LeftShoulder1  -1.70449 -24.0241 16.6455
LeftArm  -77.6636 -65.5361 40.7907
LeftForeArm  56.6786 -0.371441 -0.920708
LeftHand  -0.244104 0.0205437 5.32207
RightShoulder  1.24062 16.2193 -2.41884
RightArm  -70.5622 59.7865 -27.1169
RightForeArm  19.2851 0.0457033 -0.875033
RightHand  -6.20658 16.462 -32.4104
LeftUpLeg  -66.5285 14.4301 -19.9625
LeftLeg  50.8417 7.93064 10.7554
LeftFoot  -13.4997 0.249059 9.06004
LeftToes  -1.10052e-010 1.3781e-010 -2.1811e-011
394
root  -23.0737 35.3242 0.262186 -162.98 -87.7928 -172.464
RightUpLeg  -69.7861 -16.8126 1.82782
RightLeg  79.93 -1.49975 -12.3831
RightFoot  4.56485 0.763349 -5.17752
RightToes  2.91037e-010 0 -3.6325e-017
Spine  72.7107 -5.30025 5.5095
Spine1  10.8242 3.1153 -13.5903
HEad  -50.8535 -4.93502 3.43798
LeftShoulder1  -1.93536 -23.3045 17.8074
LeftArm  -78.7712 -65.1586 41.2801
LeftForeArm  55.7367 0.114888 -0.400092
LeftHand  -0.244104 0.0205437 5.32207
RightShoulder  1.12375 15.9835 -3.01914
RightArm  -72.0224 59.8699 -29.0786
RightForeArm  19.7724 -0.0374457 -0.896265
RightHand  -5.7124 15.4938 -31.2902
LeftUpLeg  -65.0721 14.955 -19.098
LeftLeg  52.0589 7.7397 10.97
LeftFoot  -16.0389 0.402705 7.42922
LeftToes  -1.10052e-010 1.3781e-010 -2.1811e-011
395
root  -24.1752 35.4661 0.440716 -172.343 -87.5373 -162.773
RightUpLeg  -72.4069 -15.098 2.66528
RightLeg  73.796 -2.79096 -11.8841
RightFoot  1.06144 0.378757 -3.47161
RightToes  2.91037e-010 0 -3.6325e-017
Spine  72.9584 -5.73782 6.27968
Spine1  10.8814 3.01972 -13.5138
HEad  -50.4028 -4.79669 3.613
LeftShoulder1  -2.03547 -22.7972 18.4017
LeftArm  -79.1204 -64.6037 42.0304
LeftForeArm  54.5138 0.572343 -0.262084
LeftHand  -0.244104 0.0205437 5.32207
RightShoulder  0.902119 15.0943 -4.06338
RightArm  -73.6515 60.3155 -30.1912
RightForeArm  20.7143 0.22802 -1.05522
RightHand  -5.25456 14.5094 -30.2805
LeftUpLeg  -63.6957 15.758 -18.8386
LeftLeg  52.5691 7.54335 10.9052
LeftFoot  -18.2048 0.522302 6.83439
LeftToes  -1.10052e-010 1.3781e-010 -2.1811e-011
396
root  -25.255 35.5212 0.555765 -175.768 -87.2079 -158.773
RightUpLeg  -74.667 -14.013 5.15399
RightLeg  65.2643 -4.91112 -12.0568
RightFoot  -1.32572 0.215069 -2.54042
RightToes  2.91037e-010 0 -3.6325e-017
Spine  72.9999 -5.97749 6.79855
Spine1  10.9417 3.09521 -13.525
HEad  -50.0266 -4.61318 3.60204
LeftShoulder1  -2.19802 -22.0805 19.3735
LeftArm  -78.7226 -64.0626 42.1813
LeftForeArm  53.3391 1.06311 -0.227989
LeftHand  -0.244104 0.0205437 5.32207
RightShoulder  0.714772 14.0845 -4.95381
RightArm  -74.721 60.7331 -31.5217
RightForeArm  20.3045 0.359004 -0.904387
RightHand  -5.07116 13.9062 -30.1448
LeftUpLeg  -62.7124 16.4681 -18.7836
LeftLeg  53.3375 7.50501 11.1558
LeftFoot  -20.154 0.649861 6.85901
LeftToes  -1.10052e-010 1.3781e-010 -2.1811e-011
